<mxfile host="app.diagrams.net" modified="2023-05-15T13:29:11.135Z" agent="Mozilla/5.0 (Windows NT 10.0; Win64; x64) AppleWebKit/537.36 (KHTML, like Gecko) Chrome/112.0.0.0 Safari/537.36" etag="TutgxaW6157vK6UlEVP5" version="21.3.1" type="device">
  <diagram id="R2lEEEUBdFMjLlhIrx00" name="Page-1">
    <mxGraphModel dx="1032" dy="1540" grid="1" gridSize="10" guides="1" tooltips="1" connect="1" arrows="1" fold="1" page="1" pageScale="1" pageWidth="850" pageHeight="1100" math="0" shadow="0" extFonts="Permanent Marker^https://fonts.googleapis.com/css?family=Permanent+Marker">
      <root>
        <mxCell id="0" />
        <mxCell id="1" parent="0" />
        <mxCell id="qmREP54lc_ftO-55-l6s-1" value="CATEGORY PRODUCT" style="rounded=0;whiteSpace=wrap;html=1;fontSize=13;labelBackgroundColor=none;fontStyle=1;fillColor=#F2CC8F;strokeColor=#E07A5F;fontColor=#393C56;" parent="1" vertex="1">
          <mxGeometry x="180" y="-20" width="100" height="40" as="geometry" />
        </mxCell>
        <mxCell id="qmREP54lc_ftO-55-l6s-18" value="" style="rounded=0;orthogonalLoop=1;jettySize=auto;html=1;endArrow=none;endFill=0;fontSize=13;labelBackgroundColor=none;fontStyle=1;strokeColor=#E07A5F;fontColor=default;" parent="1" source="qmREP54lc_ftO-55-l6s-2" target="qmREP54lc_ftO-55-l6s-1" edge="1">
          <mxGeometry relative="1" as="geometry" />
        </mxCell>
        <mxCell id="qmREP54lc_ftO-55-l6s-31" style="edgeStyle=none;rounded=0;orthogonalLoop=1;jettySize=auto;html=1;entryX=0;entryY=0.5;entryDx=0;entryDy=0;endArrow=none;endFill=0;fontSize=13;labelBackgroundColor=none;fontStyle=1;strokeColor=#E07A5F;fontColor=default;" parent="1" source="qmREP54lc_ftO-55-l6s-2" target="qmREP54lc_ftO-55-l6s-3" edge="1">
          <mxGeometry relative="1" as="geometry" />
        </mxCell>
        <mxCell id="qmREP54lc_ftO-55-l6s-32" style="rounded=0;orthogonalLoop=1;jettySize=auto;html=1;entryX=0;entryY=0.5;entryDx=0;entryDy=0;endArrow=none;endFill=0;fontSize=13;labelBackgroundColor=none;fontStyle=1;strokeColor=#E07A5F;fontColor=default;" parent="1" source="qmREP54lc_ftO-55-l6s-2" target="qmREP54lc_ftO-55-l6s-6" edge="1">
          <mxGeometry relative="1" as="geometry">
            <Array as="points">
              <mxPoint x="590" y="190" />
            </Array>
          </mxGeometry>
        </mxCell>
        <mxCell id="qmREP54lc_ftO-55-l6s-38" style="edgeStyle=none;rounded=0;orthogonalLoop=1;jettySize=auto;html=1;endArrow=none;endFill=0;fontSize=13;labelBackgroundColor=none;fontStyle=1;exitX=1.003;exitY=0.088;exitDx=0;exitDy=0;exitPerimeter=0;entryX=0.109;entryY=1.066;entryDx=0;entryDy=0;entryPerimeter=0;strokeColor=#E07A5F;fontColor=default;" parent="1" source="qmREP54lc_ftO-55-l6s-2" target="qmREP54lc_ftO-55-l6s-4" edge="1">
          <mxGeometry relative="1" as="geometry">
            <mxPoint x="450" y="20" as="targetPoint" />
            <Array as="points" />
          </mxGeometry>
        </mxCell>
        <mxCell id="qmREP54lc_ftO-55-l6s-2" value="PRODUCTS" style="rounded=0;whiteSpace=wrap;html=1;fontSize=13;labelBackgroundColor=none;fontStyle=1;fillColor=#F2CC8F;strokeColor=#E07A5F;fontColor=#393C56;" parent="1" vertex="1">
          <mxGeometry x="242.5" y="140" width="107.5" height="70" as="geometry" />
        </mxCell>
        <mxCell id="qmREP54lc_ftO-55-l6s-26" style="edgeStyle=none;rounded=0;orthogonalLoop=1;jettySize=auto;html=1;entryX=0.5;entryY=0;entryDx=0;entryDy=0;endArrow=none;endFill=0;exitX=0.5;exitY=1;exitDx=0;exitDy=0;fontSize=13;labelBackgroundColor=none;fontStyle=1;strokeColor=#E07A5F;fontColor=default;" parent="1" source="qmREP54lc_ftO-55-l6s-3" target="qmREP54lc_ftO-55-l6s-16" edge="1">
          <mxGeometry relative="1" as="geometry" />
        </mxCell>
        <mxCell id="qmREP54lc_ftO-55-l6s-27" style="edgeStyle=none;rounded=0;orthogonalLoop=1;jettySize=auto;html=1;entryX=0.5;entryY=1;entryDx=0;entryDy=0;endArrow=none;endFill=0;fontSize=13;labelBackgroundColor=none;fontStyle=1;strokeColor=#E07A5F;fontColor=default;" parent="1" source="qmREP54lc_ftO-55-l6s-3" target="qmREP54lc_ftO-55-l6s-17" edge="1">
          <mxGeometry relative="1" as="geometry" />
        </mxCell>
        <mxCell id="qmREP54lc_ftO-55-l6s-3" value="ORDERS" style="rounded=0;whiteSpace=wrap;html=1;fontSize=13;labelBackgroundColor=none;fontStyle=1;fillColor=#F2CC8F;strokeColor=#E07A5F;fontColor=#393C56;" parent="1" vertex="1">
          <mxGeometry x="510" y="200" width="130" height="60" as="geometry" />
        </mxCell>
        <mxCell id="qmREP54lc_ftO-55-l6s-34" style="edgeStyle=none;rounded=0;orthogonalLoop=1;jettySize=auto;html=1;endArrow=none;endFill=0;exitX=1;exitY=0.5;exitDx=0;exitDy=0;fontSize=13;labelBackgroundColor=none;fontStyle=1;entryX=0;entryY=0.5;entryDx=0;entryDy=0;strokeColor=#E07A5F;fontColor=default;" parent="1" source="qmREP54lc_ftO-55-l6s-4" target="qmREP54lc_ftO-55-l6s-13" edge="1">
          <mxGeometry relative="1" as="geometry">
            <Array as="points">
              <mxPoint x="680" y="-20" />
            </Array>
          </mxGeometry>
        </mxCell>
        <mxCell id="qmREP54lc_ftO-55-l6s-4" value="STOCK" style="rounded=0;whiteSpace=wrap;html=1;fontSize=13;labelBackgroundColor=none;fontStyle=1;fillColor=#F2CC8F;strokeColor=#E07A5F;fontColor=#393C56;" parent="1" vertex="1">
          <mxGeometry x="410" y="-95" width="90" height="40" as="geometry" />
        </mxCell>
        <mxCell id="qmREP54lc_ftO-55-l6s-35" style="edgeStyle=none;rounded=0;orthogonalLoop=1;jettySize=auto;html=1;entryX=0;entryY=0.5;entryDx=0;entryDy=0;endArrow=none;endFill=0;exitX=1;exitY=0.5;exitDx=0;exitDy=0;fontSize=13;labelBackgroundColor=none;fontStyle=1;strokeColor=#E07A5F;fontColor=default;" parent="1" source="qmREP54lc_ftO-55-l6s-5" target="qmREP54lc_ftO-55-l6s-3" edge="1">
          <mxGeometry relative="1" as="geometry">
            <Array as="points" />
          </mxGeometry>
        </mxCell>
        <mxCell id="qmREP54lc_ftO-55-l6s-5" value="USERS" style="rounded=0;whiteSpace=wrap;html=1;fontSize=13;labelBackgroundColor=none;fontStyle=1;fillColor=#F2CC8F;strokeColor=#E07A5F;fontColor=#393C56;" parent="1" vertex="1">
          <mxGeometry x="240" y="290" width="100" height="40" as="geometry" />
        </mxCell>
        <mxCell id="iXSNV5FOIQmVFQ4hOW6l-3" style="rounded=0;orthogonalLoop=1;jettySize=auto;html=1;strokeColor=#E07A5F;fontColor=default;fillColor=#F2CC8F;endArrow=none;endFill=0;exitX=0.75;exitY=1;exitDx=0;exitDy=0;labelBackgroundColor=none;edgeStyle=orthogonalEdgeStyle;" parent="1" source="qmREP54lc_ftO-55-l6s-6" target="qmREP54lc_ftO-55-l6s-16" edge="1">
          <mxGeometry relative="1" as="geometry">
            <Array as="points">
              <mxPoint x="798" y="385" />
            </Array>
          </mxGeometry>
        </mxCell>
        <mxCell id="qmREP54lc_ftO-55-l6s-6" value="INVOICES" style="rounded=0;whiteSpace=wrap;html=1;fontSize=13;labelBackgroundColor=none;fontStyle=1;fillColor=#F2CC8F;strokeColor=#E07A5F;fontColor=#393C56;" parent="1" vertex="1">
          <mxGeometry x="730" y="110" width="90" height="60" as="geometry" />
        </mxCell>
        <mxCell id="qmREP54lc_ftO-55-l6s-24" style="edgeStyle=none;rounded=0;orthogonalLoop=1;jettySize=auto;html=1;entryX=0.5;entryY=1;entryDx=0;entryDy=0;endArrow=none;endFill=0;fontSize=13;labelBackgroundColor=none;fontStyle=1;strokeColor=#E07A5F;fontColor=default;" parent="1" source="qmREP54lc_ftO-55-l6s-7" target="qmREP54lc_ftO-55-l6s-4" edge="1">
          <mxGeometry relative="1" as="geometry" />
        </mxCell>
        <mxCell id="qmREP54lc_ftO-55-l6s-33" style="edgeStyle=none;rounded=0;orthogonalLoop=1;jettySize=auto;html=1;endArrow=none;endFill=0;fontSize=13;labelBackgroundColor=none;fontStyle=1;entryX=0.5;entryY=0;entryDx=0;entryDy=0;strokeColor=#E07A5F;fontColor=default;" parent="1" source="qmREP54lc_ftO-55-l6s-7" target="qmREP54lc_ftO-55-l6s-3" edge="1">
          <mxGeometry relative="1" as="geometry" />
        </mxCell>
        <mxCell id="qmREP54lc_ftO-55-l6s-7" value="OPERATIONS MAGAZINE" style="rounded=0;whiteSpace=wrap;html=1;fontSize=13;labelBackgroundColor=none;fontStyle=1;fillColor=#F2CC8F;strokeColor=#E07A5F;fontColor=#393C56;" parent="1" vertex="1">
          <mxGeometry x="440" y="40" width="110" height="40" as="geometry" />
        </mxCell>
        <mxCell id="qmREP54lc_ftO-55-l6s-21" value="" style="edgeStyle=none;rounded=0;orthogonalLoop=1;jettySize=auto;html=1;endArrow=none;endFill=0;fontSize=13;labelBackgroundColor=none;fontStyle=1;strokeColor=#E07A5F;fontColor=default;" parent="1" source="qmREP54lc_ftO-55-l6s-9" target="qmREP54lc_ftO-55-l6s-2" edge="1">
          <mxGeometry relative="1" as="geometry" />
        </mxCell>
        <mxCell id="qmREP54lc_ftO-55-l6s-22" style="edgeStyle=none;rounded=0;orthogonalLoop=1;jettySize=auto;html=1;entryX=0;entryY=0.5;entryDx=0;entryDy=0;endArrow=none;endFill=0;fontSize=13;labelBackgroundColor=none;fontStyle=1;strokeColor=#E07A5F;fontColor=default;" parent="1" source="qmREP54lc_ftO-55-l6s-9" target="qmREP54lc_ftO-55-l6s-5" edge="1">
          <mxGeometry relative="1" as="geometry">
            <Array as="points" />
          </mxGeometry>
        </mxCell>
        <mxCell id="qmREP54lc_ftO-55-l6s-9" value="RESERVATIONS" style="rounded=0;whiteSpace=wrap;html=1;fontSize=12;labelBackgroundColor=none;fontStyle=1;fillColor=#F2CC8F;strokeColor=#E07A5F;fontColor=#393C56;" parent="1" vertex="1">
          <mxGeometry y="130" width="110" height="40" as="geometry" />
        </mxCell>
        <mxCell id="qmREP54lc_ftO-55-l6s-55" style="edgeStyle=none;rounded=0;orthogonalLoop=1;jettySize=auto;html=1;entryX=1;entryY=0.5;entryDx=0;entryDy=0;labelBackgroundColor=none;fontSize=13;fontColor=default;endArrow=none;endFill=0;strokeColor=#E07A5F;" parent="1" source="qmREP54lc_ftO-55-l6s-13" target="qmREP54lc_ftO-55-l6s-7" edge="1">
          <mxGeometry relative="1" as="geometry" />
        </mxCell>
        <mxCell id="qmREP54lc_ftO-55-l6s-13" value="PARTNERS" style="rounded=0;whiteSpace=wrap;html=1;fontSize=13;labelBackgroundColor=none;fontStyle=1;fillColor=#F2CC8F;strokeColor=#E07A5F;fontColor=#393C56;" parent="1" vertex="1">
          <mxGeometry x="730" y="-20" width="90" height="40" as="geometry" />
        </mxCell>
        <mxCell id="qmREP54lc_ftO-55-l6s-16" value="PAYMENTS" style="rounded=0;whiteSpace=wrap;html=1;fontSize=13;labelBackgroundColor=none;fontStyle=1;fillColor=#F2CC8F;strokeColor=#E07A5F;fontColor=#393C56;" parent="1" vertex="1">
          <mxGeometry x="600" y="370" width="120" height="30" as="geometry" />
        </mxCell>
        <mxCell id="qmREP54lc_ftO-55-l6s-17" value="DELIVERIES" style="rounded=0;whiteSpace=wrap;html=1;fontSize=13;labelBackgroundColor=none;fontStyle=1;fillColor=#F2CC8F;strokeColor=#E07A5F;fontColor=#393C56;" parent="1" vertex="1">
          <mxGeometry x="380" y="370" width="120" height="30" as="geometry" />
        </mxCell>
        <mxCell id="qmREP54lc_ftO-55-l6s-28" style="edgeStyle=none;rounded=0;orthogonalLoop=1;jettySize=auto;html=1;exitX=0.5;exitY=1;exitDx=0;exitDy=0;endArrow=none;endFill=0;fontSize=13;labelBackgroundColor=none;fontStyle=1;strokeColor=#E07A5F;fontColor=default;" parent="1" source="qmREP54lc_ftO-55-l6s-3" target="qmREP54lc_ftO-55-l6s-3" edge="1">
          <mxGeometry relative="1" as="geometry" />
        </mxCell>
        <mxCell id="qmREP54lc_ftO-55-l6s-40" value="&lt;font style=&quot;font-size: 13px;&quot;&gt;&lt;span style=&quot;font-size: 13px;&quot;&gt;are on&lt;/span&gt;&lt;/font&gt;" style="text;html=1;strokeColor=none;fillColor=none;align=center;verticalAlign=middle;whiteSpace=wrap;rounded=0;labelBackgroundColor=none;fontSize=13;fontColor=#393C56;fontStyle=1;" parent="1" vertex="1">
          <mxGeometry x="340" y="150" width="120" height="30" as="geometry" />
        </mxCell>
        <mxCell id="qmREP54lc_ftO-55-l6s-42" value="to order" style="text;html=1;strokeColor=none;fillColor=none;align=center;verticalAlign=middle;whiteSpace=wrap;rounded=0;labelBackgroundColor=none;fontSize=13;fontColor=#393C56;fontStyle=1;rotation=-15;" parent="1" vertex="1">
          <mxGeometry x="310" y="270" width="120" height="20" as="geometry" />
        </mxCell>
        <mxCell id="qmREP54lc_ftO-55-l6s-45" style="edgeStyle=none;rounded=0;orthogonalLoop=1;jettySize=auto;html=1;exitX=0.5;exitY=0;exitDx=0;exitDy=0;labelBackgroundColor=none;fontSize=13;fontColor=default;endArrow=none;endFill=0;strokeColor=#E07A5F;" parent="1" source="qmREP54lc_ftO-55-l6s-9" target="qmREP54lc_ftO-55-l6s-9" edge="1">
          <mxGeometry relative="1" as="geometry" />
        </mxCell>
        <mxCell id="qmREP54lc_ftO-55-l6s-46" value="are booked" style="text;html=1;strokeColor=none;fillColor=none;align=center;verticalAlign=middle;whiteSpace=wrap;rounded=0;labelBackgroundColor=none;fontSize=13;fontColor=#393C56;fontStyle=1;rotation=-2;" parent="1" vertex="1">
          <mxGeometry x="140" y="130" width="120" height="30" as="geometry" />
        </mxCell>
        <mxCell id="qmREP54lc_ftO-55-l6s-50" value="make" style="text;html=1;strokeColor=none;fillColor=none;align=center;verticalAlign=middle;whiteSpace=wrap;rounded=0;labelBackgroundColor=none;fontSize=13;fontColor=#393C56;fontStyle=1;rotation=45;" parent="1" vertex="1">
          <mxGeometry x="150" y="260" width="120" height="20" as="geometry" />
        </mxCell>
        <mxCell id="qmREP54lc_ftO-55-l6s-51" value="&lt;font style=&quot;font-size: 13px;&quot;&gt;&lt;span style=&quot;font-size: 13px;&quot;&gt;are ordered&lt;/span&gt;&lt;/font&gt;" style="text;html=1;strokeColor=none;fillColor=none;align=center;verticalAlign=middle;whiteSpace=wrap;rounded=0;labelBackgroundColor=none;fontSize=13;fontColor=#393C56;fontStyle=1;rotation=15;" parent="1" vertex="1">
          <mxGeometry x="350" y="185" width="120" height="30" as="geometry" />
        </mxCell>
        <mxCell id="qmREP54lc_ftO-55-l6s-53" value="&lt;font style=&quot;font-size: 13px;&quot;&gt;&lt;span style=&quot;font-size: 13px;&quot;&gt;linked&lt;/span&gt;&lt;/font&gt;" style="text;html=1;strokeColor=none;fillColor=none;align=center;verticalAlign=middle;whiteSpace=wrap;rounded=0;labelBackgroundColor=none;fontSize=13;fontColor=#393C56;fontStyle=1;rotation=60;" parent="1" vertex="1">
          <mxGeometry x="470" y="90" width="120" height="30" as="geometry" />
        </mxCell>
        <mxCell id="qmREP54lc_ftO-55-l6s-54" style="edgeStyle=none;rounded=0;orthogonalLoop=1;jettySize=auto;html=1;exitX=1;exitY=0.5;exitDx=0;exitDy=0;labelBackgroundColor=none;fontSize=13;fontColor=default;endArrow=none;endFill=0;strokeColor=#E07A5F;" parent="1" source="qmREP54lc_ftO-55-l6s-53" target="qmREP54lc_ftO-55-l6s-53" edge="1">
          <mxGeometry relative="1" as="geometry" />
        </mxCell>
        <mxCell id="qmREP54lc_ftO-55-l6s-56" value="&lt;font style=&quot;font-size: 13px;&quot;&gt;&lt;span style=&quot;font-size: 13px;&quot;&gt;linked&lt;/span&gt;&lt;/font&gt;" style="text;html=1;strokeColor=none;fillColor=none;align=center;verticalAlign=middle;whiteSpace=wrap;rounded=0;labelBackgroundColor=none;fontSize=13;fontColor=#393C56;fontStyle=1;rotation=-15;" parent="1" vertex="1">
          <mxGeometry x="610" width="120" height="30" as="geometry" />
        </mxCell>
        <mxCell id="qmREP54lc_ftO-55-l6s-59" value="&lt;font style=&quot;font-size: 13px;&quot;&gt;&lt;span style=&quot;font-size: 13px;&quot;&gt;are located&lt;/span&gt;&lt;/font&gt;" style="text;html=1;strokeColor=none;fillColor=none;align=center;verticalAlign=middle;whiteSpace=wrap;rounded=0;labelBackgroundColor=none;fontSize=13;fontColor=#393C56;fontStyle=1;rotation=-60;" parent="1" vertex="1">
          <mxGeometry x="290" y="80" width="120" height="30" as="geometry" />
        </mxCell>
        <mxCell id="qmREP54lc_ftO-55-l6s-60" value="&lt;font style=&quot;font-size: 13px;&quot;&gt;&lt;span style=&quot;font-size: 13px;&quot;&gt;performed on&lt;/span&gt;&lt;/font&gt;" style="text;html=1;strokeColor=none;fillColor=none;align=center;verticalAlign=middle;whiteSpace=wrap;rounded=0;labelBackgroundColor=none;fontSize=13;fontColor=#393C56;fontStyle=1;rotation=60;" parent="1" vertex="1">
          <mxGeometry x="430" y="-20" width="120" height="30" as="geometry" />
        </mxCell>
        <mxCell id="qmREP54lc_ftO-55-l6s-62" value="have" style="text;html=1;strokeColor=none;fillColor=none;align=center;verticalAlign=middle;whiteSpace=wrap;rounded=0;labelBackgroundColor=none;fontSize=13;fontColor=#393C56;fontStyle=1;rotation=70;" parent="1" vertex="1">
          <mxGeometry x="230" y="90" width="120" height="30" as="geometry" />
        </mxCell>
        <mxCell id="qmREP54lc_ftO-55-l6s-63" value="for" style="text;html=1;strokeColor=none;fillColor=none;align=center;verticalAlign=middle;whiteSpace=wrap;rounded=0;labelBackgroundColor=none;fontSize=14;fontColor=#393C56;fontStyle=1;rotation=45;" parent="1" vertex="1">
          <mxGeometry x="580" y="310" width="120" height="30" as="geometry" />
        </mxCell>
        <mxCell id="qmREP54lc_ftO-55-l6s-64" value="&lt;font style=&quot;font-size: 13px;&quot;&gt;&lt;span style=&quot;font-size: 13px;&quot;&gt;delivered&lt;/span&gt;&lt;/font&gt;" style="text;html=1;strokeColor=none;fillColor=none;align=center;verticalAlign=middle;whiteSpace=wrap;rounded=0;labelBackgroundColor=none;fontSize=13;fontColor=#393C56;fontStyle=1;rotation=-45;" parent="1" vertex="1">
          <mxGeometry x="450" y="280" width="120" height="30" as="geometry" />
        </mxCell>
        <mxCell id="qmREP54lc_ftO-55-l6s-65" value="&lt;font style=&quot;font-size: 13px;&quot;&gt;&lt;span style=&quot;font-size: 13px;&quot;&gt;delivered by&lt;/span&gt;&lt;/font&gt;" style="text;html=1;strokeColor=none;fillColor=none;align=center;verticalAlign=middle;whiteSpace=wrap;rounded=0;labelBackgroundColor=none;fontSize=13;fontColor=#393C56;fontStyle=1;rotation=15;" parent="1" vertex="1">
          <mxGeometry x="500" y="-90" width="120" height="30" as="geometry" />
        </mxCell>
        <mxCell id="iXSNV5FOIQmVFQ4hOW6l-4" value="&lt;font style=&quot;font-size: 12px;&quot;&gt;&lt;span style=&quot;font-size: 12px;&quot;&gt;are paid&lt;/span&gt;&lt;/font&gt;" style="text;html=1;strokeColor=none;fillColor=none;align=center;verticalAlign=middle;whiteSpace=wrap;rounded=0;labelBackgroundColor=none;fontSize=12;fontColor=#393C56;fontStyle=1;rotation=-90;" parent="1" vertex="1">
          <mxGeometry x="700" y="200" width="140" height="40" as="geometry" />
        </mxCell>
      </root>
    </mxGraphModel>
  </diagram>
</mxfile>
